<svg version="1.1" xmlns="http://www.w3.org/2000/svg" viewBox="0 0 621 678" preserveAspectRatio="xMidYMid meet">
    <g fill="#000000">
        <path d="M286 656.7 c-1.9 -1.3 -9.3 -5.6 -16.5 -9.7 -7.1 -4 -14.1 -8.1 -15.5 -9.1 -1.4 -0.9 -5.9 -3.5 -10 -5.7 -4.1 -2.2 -10.4 -5.8 -14 -8.1 -3.6 -2.2 -8.3 -4.9 -10.5 -6 -2.2 -1.1 -6.9 -3.8 -10.5 -6 -3.6 -2.2 -9 -5.3 -12 -7 -3 -1.6 -10.3 -5.8 -16.2 -9.2 -13 -7.8 -23.6 -13.9 -34.3 -19.9 -7.9 -4.4 -11.1 -6.3 -36.3 -20.9 -7 -4 -18.2 -10.6 -25 -14.5 -6.8 -3.9 -17.4 -10.1 -23.7 -13.8 -6.3 -3.8 -11.6 -6.8 -11.9 -6.8 -0.3 0 -5.3 -2.9 -11.3 -6.4 -5.9 -3.4 -12.7 -7.4 -15.1 -8.7 l-4.2 -2.4 -0.3 -84.3 -0.2 -84.2 1.1 0 c0.6 0 6.7 3.6 13.7 8 7 4.4 12.9 8 13.2 8 0.3 0 5.5 3.2 11.6 7 6 3.9 11.2 7 11.5 7 0.3 0 3.6 2 7.4 4.5 3.9 2.5 7.7 4.8 8.5 5.1 l1.5 0.6 0.2 44.6 0.3 44.5 7.5 4.5 c4.1 2.4 10.7 6.1 14.5 8.1 3.9 2.1 11.4 6.3 16.9 9.4 5.4 3.1 10 5.7 10.2 5.7 0.1 0 5.6 3.1 12.1 6.8 11.4 6.6 25.3 14.4 52.8 29.8 7.2 4 14.5 8.2 16.3 9.3 1.8 1.2 3.8 2.1 4.3 2.1 l0.9 0 -0.2 -89.7 -0.3 -89.8 -7.7 -4.5 c-4.2 -2.5 -12.1 -7 -17.5 -10.1 -5.4 -3 -16.5 -9.3 -24.6 -14 -8.1 -4.6 -19.6 -11.3 -25.5 -14.7 -5.9 -3.5 -11.6 -6.7 -12.7 -7.2 -1.1 -0.4 -7.3 -3.9 -13.7 -7.6 -6.5 -3.8 -17.6 -10.3 -24.8 -14.4 -7.2 -4.1 -18.2 -10.5 -24.6 -14.2 -6.3 -3.8 -11.8 -6.8 -12.1 -6.8 -0.3 0 -4.2 -2.2 -8.7 -4.9 -4.4 -2.7 -10.6 -6.2 -13.6 -7.8 -3 -1.7 -7 -3.8 -8.8 -4.9 l-3.2 -1.9 0.2 -42.4 0.3 -42.5 11 -4.9 c6.1 -2.7 17.1 -7.8 24.6 -11.3 7.5 -3.5 13.9 -6.4 14.2 -6.4 0.3 0 7 -3.1 14.9 -6.9 8 -3.8 15.5 -7.2 16.9 -7.6 1.3 -0.4 7.6 -3.3 13.9 -6.5 6.3 -3.2 12.6 -6.1 14 -6.5 1.4 -0.4 9 -3.9 16.9 -7.6 7.9 -3.8 14.5 -6.9 14.8 -6.9 0.3 0 4 -1.6 8.2 -3.6 8.7 -4.2 38.1 -17.6 52.1 -23.9 5.2 -2.3 12.9 -5.9 17 -7.9 4.1 -2.1 10.7 -5 14.5 -6.6 3.9 -1.6 12 -5.3 18 -8.3 6.1 -3 12.1 -5.8 13.5 -6.2 1.4 -0.4 5.9 -2.4 10 -4.5 4.1 -2.1 9.8 -4.8 12.7 -6 l5.2 -2.2 13.3 6.2 c7.3 3.5 14.9 6.8 16.8 7.5 1.9 0.7 7.6 3.2 12.5 5.5 5 2.3 13.1 5.9 18 8 5 2.1 12.8 5.6 17.5 7.7 4.7 2.2 10.1 4.6 12 5.3 1.9 0.8 9.1 4 16 7.3 6.9 3.2 15.2 6.9 18.5 8.2 3.3 1.2 11.2 4.7 17.5 7.7 6.3 3.1 12.6 5.8 13.9 6.3 1.3 0.4 8.6 3.6 16.3 7.1 7.6 3.5 14.1 6.4 14.4 6.4 0.3 0 7.4 3.1 15.7 6.9 8.4 3.8 18.8 8.5 23.2 10.4 4.4 1.9 11.4 5.1 15.5 6.9 4.1 1.9 8.6 3.9 9.9 4.5 l2.4 0.9 -12.4 7.4 c-6.8 4 -17.6 10.3 -23.9 14 -6.3 3.7 -15.3 9 -20 11.8 -4.7 2.7 -10.8 6.2 -13.5 7.7 -2.8 1.5 -6.3 3.5 -8 4.5 l-3 1.8 -4.5 -2.2 c-2.5 -1.2 -6.7 -3 -9.5 -4.1 -2.7 -1 -10.5 -4.5 -17.3 -7.7 -6.7 -3.2 -12.7 -5.8 -13.1 -5.8 -0.5 0 -6.7 -2.7 -13.8 -6.1 -7 -3.3 -15.5 -7.1 -18.8 -8.4 -3.3 -1.2 -10.9 -4.6 -17 -7.5 -6 -2.9 -12.6 -5.8 -14.5 -6.5 -1.9 -0.7 -9.5 -4 -16.8 -7.4 -7.3 -3.3 -13.5 -6.1 -13.8 -6.1 -0.3 0 -7.6 -3.2 -16.2 -7.1 -8.7 -3.9 -17.6 -7.9 -20 -9 l-4.3 -1.9 -9.2 3.9 c-5.1 2.1 -14.4 6.3 -20.8 9.2 -6.4 3 -13.1 6 -15 6.8 -1.9 0.8 -8.4 3.9 -14.5 6.8 -6.2 2.9 -11.5 5.3 -11.9 5.3 -0.4 0 -6.9 2.9 -14.4 6.4 -18.3 8.7 -37.2 17.3 -45.1 20.6 -3.6 1.5 -11.4 5.1 -17.5 8 -6 2.9 -12.6 5.8 -14.5 6.5 -1.9 0.7 -9.7 4.3 -17.3 7.9 -7.5 3.6 -14 6.6 -14.4 6.6 -1.3 0 -16.3 7.3 -16.3 8 0 0.3 2.8 2.1 6.3 4 3.4 1.8 9.4 5.2 13.2 7.5 7 4.2 28.9 17 36.8 21.4 5.8 3.3 22.9 13.1 37.4 21.5 6.8 3.9 18.1 10.5 25.3 14.6 7.2 4.1 16.8 9.7 21.3 12.4 4.5 2.7 10.7 6.3 13.7 7.9 3 1.6 9.1 5 13.5 7.6 4.4 2.6 11.5 6.7 15.8 9.1 l7.7 4.4 0 172.3 0 172.3 -0.8 0 c-0.4 0 -2.3 -1 -4.2 -2.3z"/>
        <path d="M321 488.2 l0 -171 4.8 -3 c5.1 -3.2 27.2 -16 39.2 -22.7 4.1 -2.3 12.1 -6.9 17.8 -10.3 5.7 -3.4 10.5 -6.2 10.7 -6.2 0.3 0 16.4 -9.2 47.5 -27.3 8.5 -4.9 17.3 -9.9 19.5 -11.2 10.2 -5.7 12.4 -6.9 17.6 -10.1 3.1 -1.9 6 -3.4 6.4 -3.4 0.4 0 2.1 -1 3.8 -2.2 1.8 -1.3 4.8 -3.1 6.7 -4.2 9.4 -5 28.7 -16 30 -17.1 0.8 -0.7 4.7 -2.9 8.5 -5 8.5 -4.6 21.7 -12.1 36.8 -21 4.2 -2.5 10.7 -6.2 14.5 -8.2 3.7 -1.9 7.9 -4.4 9.5 -5.5 l2.7 -1.9 0 76.1 0 76.1 -1.3 1.2 c-0.7 0.7 -3.1 2.2 -5.2 3.3 -2.2 1.2 -11 6.1 -19.5 10.9 -8.5 4.9 -19.3 10.9 -24 13.5 -4.7 2.5 -10.9 6.1 -13.8 7.8 -2.9 1.8 -5.5 3.2 -5.7 3.2 -0.3 0 -0.5 -15.1 -0.5 -33.5 l0 -33.5 -0.9 0 c-0.4 0 -2.4 1.1 -4.3 2.4 -1.9 1.3 -3.9 2.5 -4.4 2.7 -1.3 0.6 -24.9 14.5 -32.1 19 -3.4 2.2 -6.5 3.9 -6.8 3.9 -0.3 0 -4.5 2.4 -9.3 5.4 -4.8 2.9 -10.7 6.5 -13.2 7.9 -2.5 1.3 -11.9 6.9 -21 12.2 -9.1 5.4 -19.6 11.6 -23.5 13.8 -3.8 2.3 -10.3 6.1 -14.2 8.5 l-7.3 4.4 0 86.9 0 86.9 0.5 0 c1.1 0 23.1 -12.1 65.5 -36 9.1 -5.1 17.9 -10 19.5 -10.8 1.7 -0.8 7.1 -3.9 12 -6.7 5 -2.9 12.6 -7.3 17 -9.7 4.4 -2.4 11.3 -6.1 15.2 -8.3 l7.3 -4 0 -20.7 0 -20.6 5.8 -3 c3.1 -1.6 9.5 -5.1 14.2 -7.7 20.4 -11.4 26 -14.5 33.5 -18.6 4.4 -2.3 9.7 -5.3 11.7 -6.6 2.1 -1.3 4 -2.3 4.3 -2.3 l0.5 0 0 58.9 0 58.8 -5.1 3.2 c-2.8 1.7 -5.3 3.1 -5.6 3.1 -0.3 0 -5.8 3.1 -12.2 6.9 -26.7 15.8 -39.2 23.1 -39.7 23.1 -0.2 0 -4.6 2.5 -9.7 5.6 -5.1 3.1 -11.9 7.1 -15.2 8.9 -5.7 3.1 -12.4 6.9 -51 29.5 -8.8 5.2 -17.9 10.4 -20.1 11.6 -2.3 1.1 -7 3.9 -10.5 6 -3.5 2.1 -9.6 5.7 -13.5 7.9 -4 2.2 -14.9 8.5 -24.3 14 -9.4 5.5 -19 11.1 -21.4 12.4 -3.8 2.1 -26.1 15 -29.7 17.1 -3.5 2.1 -16.5 9.5 -17.2 9.8 l-0.8 0.4 0 -171z"/>
    </g>
<defs>
<clipPath id="clip0_3868_4519">
<rect width="32" height="32" fill="white"/>
</clipPath>
</defs>
</svg>
